M48
; DRILL file {KiCad 8.0.6} date 2024-11-25T22:26:33-0300
; FORMAT={-:-/ absolute / metric / decimal}
; #@! TF.CreationDate,2024-11-25T22:26:33-03:00
; #@! TF.GenerationSoftware,Kicad,Pcbnew,8.0.6
; #@! TF.FileFunction,Plated,1,2,PTH
FMAT,2
METRIC
; #@! TA.AperFunction,Plated,PTH,ComponentDrill
T1C1.200
%
G90
G05
T1
X5.12Y30.69
X5.12Y25.69
X5.12Y15.69
X5.12Y10.69
X5.125Y20.69
X5.125Y5.69
X15.13Y5.105
X20.09Y31.391
X20.13Y5.105
X25.09Y31.396
X25.13Y5.11
X30.09Y31.396
X30.11Y5.11
X35.08Y31.38
X35.11Y5.11
X40.08Y31.385
X40.11Y5.115
X45.08Y31.385
X45.14Y5.11
X50.14Y5.11
X61.7Y30.7
X61.7Y15.7
X61.705Y25.7
X61.705Y20.7
X61.705Y10.7
X61.705Y5.7
M30
